<svg xmlns="http://www.w3.org/2000/svg" width="1200" height="760" viewBox="0 0 1200 760" role="img" aria-labelledby="title desc">
  <title id="title">Info Edge OCR and Document Processing Pipeline</title>
  <desc id="desc">Healthcare OCR pipeline from scanned documents to normalized structured patient records.</desc>
  <defs><linearGradient id="bg" x1="0" x2="1" y1="0" y2="1"><stop stop-color="#0a0b1d"/><stop offset="1" stop-color="#101d2d"/></linearGradient><marker id="arrow" markerWidth="12" markerHeight="12" refX="10" refY="6" orient="auto"><path d="M2 2l8 4-8 4z" fill="#9b8cff"/></marker></defs>
  <rect width="1200" height="760" rx="28" fill="url(#bg)"/>
  <text x="64" y="82" fill="#f4f7fb" font-family="Inter,Arial" font-size="34" font-weight="700">OCR Document Intelligence Pipeline</text>
  <text x="64" y="118" fill="#a9b4c7" font-family="Inter,Arial" font-size="18">Scanned records transformed into structured, validated healthcare data</text>
  <g transform="translate(74 190)">
    <g fill="#121a30" stroke="#33415f" stroke-width="2">
      <rect width="180" height="210" rx="14"/><rect x="250" y="24" width="180" height="162" rx="14"/><rect x="500" y="24" width="180" height="162" rx="14"/><rect x="750" y="24" width="180" height="162" rx="14"/>
    </g>
    <g stroke="#9b8cff" stroke-width="4" marker-end="url(#arrow)"><path d="M188 104h54"/><path d="M438 104h54"/><path d="M688 104h54"/></g>
    <g font-family="Inter,Arial" fill="#f4f7fb" font-size="21" font-weight="700"><text x="34" y="42">Documents</text><text x="292" y="82">OCR Pass</text><text x="532" y="82">Parsing</text><text x="784" y="82">Validation</text></g>
    <g stroke="#5ff6e8" stroke-width="3"><path d="M36 82h108M36 112h94M36 142h120M36 172h78"/><path d="M284 116h108M284 144h70"/><path d="M532 116h104M532 144h80"/><path d="M782 116h116M782 144h92"/></g>
  </g>
  <g transform="translate(134 502)">
    <rect width="932" height="124" rx="18" fill="#111c31" stroke="#33415f"/>
    <text x="30" y="46" fill="#f4f7fb" font-family="Inter,Arial" font-size="22" font-weight="700">Structured Patient Record Output</text>
    <g font-family="Inter,Arial" font-size="16" fill="#a9b4c7"><text x="32" y="86">patient_id</text><text x="172" y="86">provider</text><text x="310" y="86">diagnosis_text</text><text x="502" y="86">document_date</text><text x="690" y="86">confidence</text><text x="832" y="86">status</text></g>
  </g>
</svg>
