<svg xmlns="http://www.w3.org/2000/svg" width="1200" height="760" viewBox="0 0 1200 760" role="img" aria-labelledby="title desc">
  <title id="title">Wipro Churn Prediction Model Workflow</title>
  <desc id="desc">Churn prediction pipeline from source data through feature engineering, modeling, scoring, dashboarding, and retention action.</desc>
  <defs><linearGradient id="bg" x1="0" x2="1" y1="0" y2="1"><stop stop-color="#07101f"/><stop offset="1" stop-color="#16132a"/></linearGradient><marker id="arrow" markerWidth="12" markerHeight="12" refX="10" refY="6" orient="auto"><path d="M2 2l8 4-8 4z" fill="#36c5f0"/></marker></defs>
  <rect width="1200" height="760" rx="28" fill="url(#bg)"/>
  <text x="70" y="82" fill="#f4f7fb" font-family="Inter,Arial" font-size="36" font-weight="700">Churn Prediction Workflow</text>
  <text x="70" y="118" fill="#a9b4c7" font-family="Inter,Arial" font-size="18">Feature preparation, probability scoring, and retention decision routing</text>
  <g font-family="Inter,Arial">
    <g fill="#111c31" stroke="#2d405d" stroke-width="2">
      <rect x="70" y="210" width="180" height="132" rx="16"/><rect x="310" y="210" width="180" height="132" rx="16"/><rect x="550" y="210" width="180" height="132" rx="16"/><rect x="790" y="210" width="180" height="132" rx="16"/><rect x="550" y="448" width="180" height="132" rx="16"/><rect x="790" y="448" width="180" height="132" rx="16"/>
    </g>
    <g fill="#f4f7fb" font-size="21" font-weight="700"><text x="106" y="264">Source Data</text><text x="343" y="264">Features</text><text x="592" y="264">Model</text><text x="823" y="264">Risk Score</text><text x="586" y="502">Dashboard</text><text x="816" y="502">Action Queue</text></g>
    <g fill="#a9b4c7" font-size="14"><text x="104" y="294">transactions</text><text x="104" y="316">support logs</text><text x="343" y="294">RFM signals</text><text x="343" y="316">product depth</text><text x="592" y="294">classification</text><text x="592" y="316">validation</text><text x="823" y="294">probability</text><text x="823" y="316">banding</text><text x="586" y="532">segments</text><text x="586" y="554">trend views</text><text x="816" y="532">outreach</text><text x="816" y="554">prioritization</text></g>
  </g>
  <g stroke="#36c5f0" stroke-width="4" fill="none" marker-end="url(#arrow)"><path d="M252 276h52"/><path d="M492 276h52"/><path d="M732 276h52"/><path d="M880 345v92"/><path d="M790 514h-52"/></g>
  <path d="M160 410C278 380 390 408 514 390S758 336 1030 386" stroke="#e6b86a" stroke-width="3" fill="none" stroke-dasharray="9 12"/>
</svg>
